<?xml version="1.0" standalone="no"?>
<!DOCTYPE svg PUBLIC "-//W3C//DTD SVG 20010904//EN"
 "http://www.w3.org/TR/2001/REC-SVG-20010904/DTD/svg10.dtd">
<svg version="1.0" xmlns="http://www.w3.org/2000/svg"
 width="900.000000pt" height="900.000000pt" viewBox="0 0 900.000000 900.000000"
 preserveAspectRatio="xMidYMid meet">
<metadata>
Created by potrace 1.16, written by Peter Selinger 2001-2019
</metadata>
<g transform="translate(0.000000,900.000000) scale(0.100000,-0.100000)"
fill="#000000" stroke="none">
<path d="M2 7878 c0 -618 3 -1108 5 -1090 2 18 8 30 12 27 5 -2 7 17 5 43 -3
38 -2 42 6 22 7 -19 7 -12 3 24 -4 34 -2 47 5 42 7 -4 9 6 6 31 -3 30 -2 34 6
18 7 -15 8 -11 3 19 -4 25 -2 37 4 33 6 -4 8 4 6 21 -4 22 -2 24 7 12 9 -12
10 -8 5 19 -5 24 -4 31 4 26 8 -5 10 2 6 22 -5 22 -4 25 5 13 9 -12 10 -8 5
19 -5 22 -4 31 3 27 6 -4 8 2 4 16 -3 13 -1 19 5 15 7 -5 9 0 6 13 -3 11 0 20
6 20 6 0 8 7 4 17 -5 11 -3 14 6 8 10 -6 11 -2 6 15 -5 17 -4 21 6 15 9 -6 11
-3 6 8 -7 20 11 77 25 77 5 0 6 5 3 10 -3 6 -1 10 5 10 6 0 9 4 6 9 -9 14 5
42 17 34 6 -4 8 0 4 10 -8 22 2 49 16 40 6 -4 7 -1 3 6 -10 15 13 73 25 65 5
-3 6 3 2 12 -4 12 -3 15 5 10 7 -4 10 -2 7 6 -3 8 2 22 11 33 8 11 12 14 8 6
-5 -9 -3 -12 5 -7 6 4 9 12 5 17 -3 6 2 17 12 25 11 9 13 12 6 9 -10 -5 -9 1
2 24 9 17 19 31 22 31 3 0 2 -4 -1 -10 -3 -5 -4 -10 -1 -10 3 0 10 10 17 21 8
16 8 20 -1 14 -14 -9 10 40 35 70 9 11 13 14 9 6 -5 -9 -3 -12 5 -7 6 4 9 12
6 17 -8 12 54 101 66 94 5 -3 7 0 4 7 -3 7 5 24 17 38 13 14 19 19 13 10 -9
-13 -8 -13 7 -1 10 7 15 17 12 23 -8 13 16 39 29 31 5 -3 7 -1 4 4 -4 6 2 22
14 34 11 13 17 17 13 9 -4 -9 -3 -12 2 -7 5 5 9 14 9 20 1 7 7 11 14 9 7 -1 9
2 6 9 -9 13 260 283 274 275 5 -4 13 -1 17 5 5 8 3 9 -7 4 -12 -8 -12 -6 0 9
8 9 20 15 27 12 7 -3 18 3 26 12 12 16 11 16 -7 2 -20 -15 -20 -15 -1 8 11 12
26 20 33 17 8 -2 11 -1 8 4 -7 12 35 42 47 35 5 -3 7 0 6 8 -2 7 5 13 14 13 9
0 20 4 25 9 4 5 3 6 -4 2 -7 -4 -13 -5 -13 -3 0 10 81 57 90 52 5 -3 12 0 16
6 5 8 2 10 -7 5 -8 -4 -5 -1 5 8 10 8 22 13 26 11 5 -3 11 2 14 11 3 9 13 14
21 10 8 -3 17 0 21 6 5 7 2 8 -7 4 -8 -4 -5 0 6 8 11 9 25 14 33 11 7 -2 11
-1 8 4 -7 10 22 23 34 16 5 -3 12 0 16 6 5 8 2 10 -7 5 -8 -4 -5 0 6 8 11 9
25 14 33 11 8 -3 10 0 6 7 -5 8 -2 9 10 5 11 -5 15 -3 10 5 -5 8 -2 9 10 5 9
-4 15 -3 12 2 -8 12 20 22 41 14 12 -5 14 -3 8 7 -6 10 -4 12 9 7 9 -4 15 -3
12 2 -7 11 22 23 36 14 7 -4 8 -1 3 7 -6 9 -2 10 15 5 14 -5 20 -3 16 3 -7 12
52 35 67 25 6 -3 7 -1 3 5 -8 13 9 17 54 13 18 -1 21 1 12 7 -11 7 -7 11 13
16 14 4 31 4 37 0 7 -5 8 -2 3 6 -6 10 -3 12 13 8 12 -4 20 -3 17 2 -6 10 42
23 55 15 6 -4 10 -1 10 5 0 8 10 10 28 6 21 -5 24 -4 12 4 -12 9 -10 11 12 7
17 -2 25 0 21 6 -4 6 8 7 33 3 30 -5 35 -4 24 4 -12 9 -10 11 13 7 15 -2 27 0
27 5 0 6 16 8 38 4 28 -4 32 -3 17 4 -15 8 -10 9 24 6 27 -3 40 -1 31 4 -10 6
-3 10 21 13 19 2 -455 5 -1053 5 l-1088 2 2 -1122z"/>
<path d="M6820 8990 c-16 -6 -6 -7 29 -3 31 3 52 2 49 -3 -3 -5 19 -9 50 -10
31 0 57 -5 59 -11 2 -6 16 -8 31 -6 22 4 24 2 12 -7 -12 -9 -8 -10 19 -5 20 5
31 3 28 -2 -4 -6 5 -8 21 -6 21 4 24 2 12 -6 -11 -8 -7 -10 20 -5 27 4 31 3
20 -5 -11 -8 -7 -9 19 -4 23 4 32 3 28 -5 -5 -6 1 -8 15 -4 13 3 19 1 15 -5
-5 -7 1 -9 15 -6 19 4 21 3 8 -7 -13 -10 -12 -11 3 -6 27 9 73 -4 55 -16 -8
-5 -2 -6 16 -2 22 5 27 4 21 -6 -5 -9 -4 -11 4 -6 16 10 53 -3 45 -16 -4 -7
-2 -8 5 -4 16 10 53 -3 45 -16 -4 -7 -2 -8 5 -4 15 9 53 -3 46 -15 -3 -5 2 -6
11 -2 13 5 15 3 9 -7 -5 -8 -4 -11 3 -7 15 10 43 -3 35 -16 -3 -5 -1 -7 5 -3
13 8 63 -14 56 -25 -3 -5 3 -6 12 -2 12 4 15 3 10 -6 -5 -8 -3 -12 5 -10 28 3
40 -1 33 -13 -4 -6 -3 -8 4 -5 14 9 43 -3 36 -14 -3 -5 -2 -9 3 -8 20 3 34 -2
28 -11 -3 -5 0 -7 7 -5 8 3 22 -2 33 -11 11 -8 14 -12 6 -8 -9 4 -12 3 -7 -4
4 -6 13 -9 20 -6 8 3 17 0 22 -7 5 -8 3 -10 -6 -4 -9 5 -11 4 -6 -4 4 -6 12
-8 18 -5 6 4 20 -4 30 -17 11 -13 17 -18 13 -11 -6 11 -3 12 14 3 11 -7 20
-17 18 -24 -1 -7 6 -11 17 -9 12 2 16 -1 10 -9 -4 -7 -3 -10 3 -6 13 8 55 -22
48 -33 -3 -5 5 -14 17 -20 22 -11 22 -10 4 4 -11 9 -15 16 -9 16 11 0 45 -34
39 -41 -2 -2 11 -15 28 -28 l31 -25 -20 25 c-11 14 1 2 27 -26 26 -27 52 -49
59 -47 15 4 202 -184 195 -196 -3 -5 7 -20 22 -33 l27 -24 -20 26 c-11 14 -5
10 12 -9 18 -19 30 -38 28 -42 -3 -4 3 -14 13 -21 15 -12 16 -12 7 1 -5 9 -2
7 7 -3 10 -11 16 -23 13 -27 -3 -5 0 -12 6 -16 8 -5 10 -2 5 7 -4 8 3 1 16
-16 13 -16 23 -34 23 -40 0 -6 17 -28 38 -49 21 -21 36 -44 33 -52 -3 -7 0
-16 6 -20 7 -5 8 -2 3 6 -6 9 -4 11 4 6 7 -5 10 -14 7 -22 -3 -7 0 -16 6 -20
7 -4 8 -3 4 4 -4 7 -5 12 -2 12 3 0 13 -14 22 -31 8 -17 11 -28 5 -25 -7 4 -9
1 -5 -8 3 -9 11 -14 17 -13 7 1 11 -6 11 -15 -1 -10 3 -15 8 -12 6 4 8 1 6 -7
-5 -14 17 -69 28 -69 2 0 -2 14 -11 30 -9 17 -13 30 -10 30 11 0 45 -81 39
-92 -4 -6 -3 -8 3 -5 13 8 26 -20 16 -35 -4 -7 -1 -8 7 -3 10 6 12 4 7 -9 -4
-9 -3 -15 2 -12 12 8 35 -50 25 -65 -4 -7 -3 -10 3 -6 14 9 24 -18 16 -40 -4
-10 -2 -14 4 -10 14 9 24 -18 16 -40 -4 -10 -2 -14 5 -9 13 8 26 -29 16 -45
-5 -8 -3 -9 6 -4 10 6 12 4 7 -8 -3 -10 -2 -17 4 -17 6 0 8 -9 4 -21 -5 -16
-4 -19 6 -14 9 6 11 2 7 -13 -4 -14 -2 -20 5 -15 6 4 8 -2 5 -15 -4 -14 -2
-20 5 -15 6 4 8 -2 4 -18 -8 -30 2 -76 14 -58 5 8 10 0 14 -24 4 -19 4 -41 -1
-48 -5 -8 -3 -10 6 -4 10 6 12 1 8 -18 -3 -16 -1 -24 5 -20 6 4 7 -8 3 -32 -6
-28 -4 -35 5 -29 9 5 10 -1 6 -25 -5 -23 -3 -30 5 -25 8 5 9 -6 5 -42 -4 -31
-3 -42 3 -29 5 11 9 498 9 1083 l1 1062 -1077 -1 c-593 -1 -1089 -5 -1103 -9z"/>
<path d="M3452 8013 c575 -2 1520 -2 2100 0 579 1 108 2 -1047 2 -1155 0
-1629 -1 -1053 -2z"/>
<path d="M2355 8000 c15 -8 2 -9 -50 -6 -48 3 -62 1 -45 -5 23 -8 22 -8 -7 -5
-18 1 -33 -2 -33 -7 0 -5 -16 -6 -37 -3 -29 5 -35 4 -23 -4 12 -9 7 -10 -20
-6 -22 4 -30 3 -21 -3 10 -7 6 -11 -17 -16 -18 -3 -37 -3 -43 1 -8 5 -9 3 -4
-6 6 -10 1 -11 -21 -6 -18 4 -24 3 -16 -2 11 -7 7 -11 -13 -16 -14 -4 -31 -4
-37 0 -7 5 -8 2 -3 -6 6 -10 4 -12 -9 -7 -10 4 -15 3 -11 -3 6 -10 2 -11 -47
-14 -16 -1 -34 -8 -40 -15 -11 -11 -9 -11 9 -2 33 17 42 12 10 -5 -15 -8 -33
-12 -39 -8 -6 4 -8 3 -5 -3 8 -13 -20 -26 -35 -16 -6 3 -8 1 -4 -5 6 -11 -29
-28 -51 -24 -6 2 -15 -3 -19 -9 -5 -8 -2 -10 7 -5 20 11 -22 -23 -45 -36 -14
-8 -17 -7 -11 4 4 7 -4 0 -17 -16 -14 -16 -29 -26 -35 -23 -6 4 -17 -1 -24
-11 -13 -16 -13 -16 6 -2 19 14 19 14 6 -3 -8 -10 -20 -16 -28 -13 -8 3 -12 2
-9 -3 8 -12 -31 -44 -44 -36 -6 3 -9 1 -8 -7 2 -7 -3 -12 -10 -10 -8 1 -11 -1
-8 -6 3 -5 -27 -40 -67 -78 l-72 -69 65 70 65 70 -67 -64 c-37 -36 -65 -68
-62 -72 2 -4 -6 -18 -18 -31 -15 -16 -18 -17 -8 -3 15 20 15 20 -7 2 -12 -11
-19 -24 -17 -31 3 -7 -3 -19 -13 -27 -17 -13 -17 -13 -3 6 14 19 14 19 -2 6
-10 -7 -15 -18 -11 -24 3 -6 -7 -21 -23 -35 -16 -13 -22 -21 -14 -17 13 6 13
5 0 -7 -8 -7 -16 -20 -18 -28 -2 -8 -8 -19 -14 -25 -8 -7 -9 -6 -4 3 4 6 5 12
2 12 -3 0 -10 -10 -17 -21 -8 -16 -8 -20 1 -14 6 4 2 -11 -9 -34 -12 -23 -26
-41 -32 -41 -6 0 -8 -4 -5 -9 9 -14 -5 -42 -17 -34 -5 3 -7 1 -4 -5 9 -13 -2
-44 -13 -37 -9 6 -23 -25 -15 -33 3 -3 5 1 5 8 0 7 2 11 5 8 10 -9 -7 -38 -18
-31 -6 3 -7 1 -3 -6 10 -15 -3 -53 -15 -45 -6 3 -7 -5 -4 -23 5 -22 4 -25 -4
-13 -9 12 -10 10 -6 -11 5 -19 2 -28 -10 -33 -12 -4 -15 -13 -11 -30 8 -31 -4
-87 -16 -80 -6 4 -7 -8 -3 -30 5 -22 3 -36 -3 -36 -6 0 -8 -18 -6 -42 2 -28 1
-35 -4 -20 -4 13 -7 -970 -7 -2184 0 -1214 3 -2195 7 -2178 6 22 6 19 4 -13
-3 -25 0 -43 6 -43 6 0 8 -15 4 -37 -5 -29 -4 -35 4 -23 9 12 11 10 7 -13 -2
-15 0 -27 6 -27 5 0 7 -14 3 -32 -5 -25 -3 -29 5 -18 9 12 10 11 6 -7 -3 -13
-1 -23 5 -23 5 0 6 -10 3 -21 -5 -15 -4 -19 4 -14 8 5 10 -2 6 -22 -5 -19 -4
-24 3 -14 8 11 11 10 16 -6 4 -11 3 -28 0 -38 -5 -12 -4 -16 3 -12 14 9 24
-18 16 -40 -4 -10 -2 -14 4 -10 13 8 26 -20 16 -35 -4 -7 -1 -8 7 -3 10 6 12
4 7 -9 -5 -11 -3 -15 5 -10 8 5 9 2 5 -10 -5 -11 -3 -15 5 -10 8 5 9 2 5 -10
-4 -10 -3 -15 3 -11 10 6 14 -7 11 -32 -1 -7 8 -17 19 -23 13 -7 19 -17 16
-26 -3 -8 -2 -12 4 -9 5 3 14 -5 21 -17 12 -22 11 -22 -6 -8 -18 15 -18 14 -1
-13 18 -27 33 -38 20 -14 -3 6 5 -1 20 -18 14 -16 24 -35 21 -42 -2 -6 4 -17
13 -25 16 -12 16 -11 2 7 -14 19 -14 19 3 6 9 -7 16 -21 15 -30 -2 -9 2 -15 8
-14 7 1 20 -8 30 -20 19 -21 19 -21 -1 -7 -11 8 14 -19 56 -60 42 -42 51 -53
20 -25 l-56 50 54 -57 c29 -31 59 -54 65 -52 7 3 21 -6 32 -18 l19 -23 -25 20
-25 20 19 -22 c10 -13 22 -20 27 -18 4 3 20 -7 36 -21 15 -15 19 -20 9 -13
-14 10 -18 10 -12 2 4 -7 16 -18 28 -24 16 -9 19 -8 12 3 -11 19 24 -8 55 -41
13 -14 20 -20 16 -13 -6 11 -3 12 14 3 11 -7 21 -14 21 -17 0 -3 -5 -2 -10 1
-6 3 -10 4 -10 1 0 -3 10 -10 21 -17 15 -7 19 -8 15 0 -5 7 -1 9 8 5 9 -3 13
-10 10 -15 -3 -5 1 -6 8 -4 8 3 22 -1 33 -10 20 -15 20 -15 0 -9 -18 5 -18 4
-2 -6 9 -6 22 -8 27 -5 6 3 10 1 10 -5 0 -6 4 -9 9 -6 14 9 42 -5 34 -17 -3
-5 -1 -7 5 -4 14 9 43 -3 36 -14 -3 -5 2 -6 10 -3 8 3 23 0 33 -6 17 -11 17
-11 0 -6 -11 4 -16 2 -12 -5 4 -6 14 -8 22 -5 19 8 64 -4 58 -14 -3 -5 4 -6
15 -3 11 3 20 1 20 -5 0 -6 10 -8 23 -5 18 4 19 3 7 -6 -12 -9 -9 -10 13 -5
15 3 27 2 27 -4 0 -5 12 -7 28 -5 21 4 24 2 12 -6 -11 -8 -5 -9 24 -4 26 4 37
3 33 -4 -5 -8 7 -10 35 -7 34 3 38 2 18 -5 -17 -6 -2 -7 45 -4 39 2 65 1 58
-4 -6 -4 947 -8 2118 -8 1170 0 2121 3 2111 8 -9 4 11 6 46 4 38 -2 57 0 50 6
-8 5 3 7 30 4 28 -3 40 -2 35 6 -4 7 4 8 26 4 23 -5 30 -3 25 5 -5 7 1 9 19 6
15 -3 24 -2 22 3 -7 10 52 22 66 13 8 -5 9 -3 4 6 -6 10 -1 11 21 6 23 -5 26
-4 14 5 -12 9 -11 10 8 6 14 -3 20 -1 15 6 -4 6 2 8 15 5 12 -4 20 -2 16 3 -5
8 12 13 43 12 7 -1 10 4 6 10 -4 6 0 8 10 4 10 -4 17 -2 17 4 0 6 7 8 16 5 8
-3 13 -2 10 3 -7 11 22 23 36 14 7 -4 8 -1 3 7 -6 10 -4 12 9 7 11 -5 15 -3
10 5 -5 8 -2 9 10 5 10 -4 15 -3 11 3 -3 6 0 11 7 12 7 0 18 2 23 2 6 1 21 12
33 24 13 13 28 20 35 16 7 -4 9 -4 5 1 -10 10 29 38 41 30 5 -3 13 0 17 6 5 8
2 10 -7 4 -8 -4 0 4 16 19 17 14 36 23 43 21 7 -3 10 -1 7 5 -6 9 51 57 65 53
3 -1 33 25 66 58 32 32 54 59 50 59 -5 0 -1 9 9 20 10 11 21 17 25 15 4 -3 7
3 6 13 0 9 5 16 12 14 6 -1 11 3 10 10 -2 7 4 12 12 13 8 0 14 8 12 17 -1 9 3
20 9 24 8 5 9 3 4 -6 -5 -9 -4 -11 4 -6 6 4 9 12 5 17 -7 12 15 41 27 33 5 -3
7 1 4 8 -3 7 5 24 16 38 11 14 17 19 13 11 -4 -9 -3 -12 4 -7 6 4 8 14 5 23
-4 11 -3 14 5 9 7 -4 10 -2 7 6 -3 8 2 22 11 33 8 11 12 14 8 6 -5 -9 -3 -12
5 -7 6 4 9 11 6 16 -8 13 6 41 17 34 5 -3 9 0 7 7 -3 27 1 40 11 34 6 -4 7 1
3 11 -5 13 -3 15 7 9 9 -5 11 -4 6 4 -10 16 3 53 16 45 7 -4 8 -2 4 5 -10 16
3 53 16 45 7 -4 8 -2 4 4 -9 16 4 63 16 56 6 -4 7 2 3 16 -4 14 -3 20 2 17 6
-4 8 4 5 20 -3 16 -1 24 5 20 6 -4 8 4 6 21 -4 21 -2 24 6 12 8 -11 9 -7 5 18
-4 18 -2 32 3 32 6 0 8 12 6 27 -4 23 -2 25 7 13 8 -11 10 -3 5 35 -3 34 -2
43 4 30 6 -13 8 9 6 65 -3 53 -1 70 3 45 4 -22 7 916 7 2084 0 1169 -3 2112
-7 2095 -4 -16 -6 5 -4 49 2 51 0 74 -6 65 -6 -8 -8 5 -4 37 4 36 3 46 -5 35
-8 -12 -9 -10 -7 10 1 14 -1 31 -6 38 -4 7 -5 25 -2 40 5 21 4 24 -5 12 -9
-12 -10 -11 -6 8 3 14 1 20 -5 15 -8 -4 -9 5 -5 28 5 26 4 30 -4 19 -9 -12
-10 -11 -6 8 3 12 1 22 -5 22 -5 0 -6 10 -3 21 5 14 3 19 -3 15 -13 -8 -26 29
-16 45 5 8 3 9 -6 4 -10 -6 -12 -4 -7 8 3 10 2 17 -3 17 -5 0 -6 7 -3 17 4 10
2 14 -4 10 -13 -8 -26 20 -16 35 3 6 2 8 -4 5 -11 -7 -38 42 -28 51 3 3 5 -1
5 -8 0 -7 3 -10 7 -7 3 4 -6 18 -20 31 -15 14 -24 31 -21 39 3 8 0 18 -7 23
-8 4 -10 3 -5 -4 4 -7 5 -12 2 -12 -10 0 -35 58 -28 65 4 5 1 5 -5 1 -12 -7
-18 5 -14 27 1 5 -3 6 -9 2 -5 -3 -11 -1 -11 4 -1 6 -2 15 -3 20 0 5 -5 13
-10 18 -5 5 -6 2 -1 -6 6 -10 4 -12 -4 -7 -7 5 -10 15 -7 23 3 8 2 12 -3 9 -5
-3 -15 2 -22 11 -10 12 -11 15 -1 9 7 -4 -10 15 -38 43 -28 28 -49 55 -46 60
6 9 -38 54 -45 46 -3 -2 -23 12 -44 32 -22 20 -31 30 -20 22 18 -13 19 -13 6
3 -7 10 -17 16 -21 13 -3 -2 -20 8 -36 23 -17 15 -21 20 -10 12 11 -8 16 -10
12 -3 -3 7 -21 22 -39 35 -26 18 -29 19 -17 3 15 -18 14 -18 -12 -1 -26 17
-41 35 -16 20 7 -4 8 -3 4 5 -4 6 -12 8 -18 5 -6 -4 -22 6 -36 22 -13 16 -21
23 -18 17 5 -9 2 -11 -8 -7 -9 3 -13 10 -10 15 3 5 -3 6 -12 2 -11 -4 -15 -2
-11 4 4 6 -1 10 -11 9 -9 0 -16 4 -15 11 2 8 -4 10 -14 6 -11 -4 -14 -3 -9 5
5 8 1 10 -10 5 -13 -5 -15 -3 -9 7 5 8 4 11 -3 7 -14 -9 -43 3 -36 14 3 5 -2
6 -10 3 -9 -3 -16 -1 -16 5 0 6 -7 8 -17 4 -11 -4 -14 -3 -9 5 5 8 2 10 -8 6
-9 -3 -16 -1 -16 6 0 6 -4 9 -9 6 -12 -8 -101 24 -101 36 0 5 -4 7 -9 4 -5 -4
-41 2 -80 11 -44 10 -66 20 -58 25 6 4 -10 6 -38 3 -35 -4 -44 -3 -30 4 12 6
-820 10 -2169 10 -1204 1 -2201 4 -2215 6 -23 5 -24 4 -6 -5z m3815 -1690 c0
-6 30 -10 73 -9 39 0 92 -2 117 -5 105 -12 136 -15 158 -16 12 0 22 -5 22 -10
0 -6 11 -8 25 -4 16 4 25 2 25 -5 0 -7 9 -9 24 -5 13 3 27 1 30 -5 4 -5 13 -8
20 -5 8 3 17 1 20 -5 4 -6 13 -8 20 -5 8 3 17 1 20 -5 4 -6 13 -8 21 -4 8 3
15 0 15 -7 0 -7 7 -10 15 -7 8 4 17 2 20 -3 3 -5 12 -7 20 -3 8 3 15 0 15 -6
0 -6 7 -8 15 -5 20 8 31 -22 15 -41 -7 -9 -9 -26 -5 -45 4 -19 2 -36 -5 -45
-7 -8 -9 -26 -5 -44 4 -17 3 -36 -2 -43 -4 -7 -9 -29 -10 -48 -1 -19 -4 -57
-7 -85 -4 -27 -6 -63 -6 -78 0 -16 -3 -34 -7 -40 -5 -7 -9 -30 -10 -52 -2 -22
-4 -46 -5 -52 -2 -15 -18 -18 -18 -3 0 5 -7 7 -15 4 -8 -4 -15 -1 -15 6 0 6
-4 8 -10 5 -5 -3 -10 -1 -10 5 0 6 -4 9 -9 5 -5 -3 -12 -1 -16 5 -4 6 -10 8
-15 5 -5 -3 -11 -1 -15 5 -4 6 -11 8 -16 5 -5 -4 -9 -1 -9 5 0 7 -8 9 -21 5
-16 -5 -19 -4 -14 5 5 9 2 10 -14 5 -12 -4 -21 -2 -21 4 0 6 -6 8 -14 5 -8 -3
-17 -1 -20 5 -4 6 -13 8 -21 4 -8 -3 -15 0 -15 7 0 7 -8 9 -20 5 -12 -4 -20
-2 -20 5 0 6 -10 8 -25 4 -16 -4 -25 -2 -25 5 0 7 -9 9 -24 5 -13 -3 -27 -1
-30 5 -4 6 -20 8 -35 5 -16 -3 -32 -1 -35 5 -4 6 -24 8 -51 4 -31 -4 -45 -2
-45 6 0 7 -32 11 -100 11 -67 0 -100 -4 -100 -11 0 -7 -11 -9 -30 -5 -19 3
-30 1 -30 -5 0 -6 -9 -9 -20 -6 -11 3 -23 1 -26 -5 -3 -5 -12 -7 -20 -4 -8 3
-14 1 -14 -5 0 -6 -7 -9 -15 -5 -8 3 -15 2 -15 -3 0 -8 -34 -21 -54 -20 -5 1
-13 -6 -18 -15 -5 -9 -13 -14 -19 -11 -5 4 -9 1 -9 -4 0 -6 -4 -11 -9 -11 -11
0 -111 -100 -111 -111 0 -5 -5 -9 -11 -9 -5 0 -8 -4 -5 -9 3 -5 -1 -14 -9 -21
-8 -7 -12 -16 -9 -21 3 -5 0 -9 -6 -9 -6 0 -9 -4 -5 -9 3 -5 1 -12 -4 -16 -6
-3 -8 -12 -4 -20 3 -8 1 -15 -3 -15 -10 0 -12 -13 -14 -127 -1 -45 1 -86 5
-92 3 -6 3 -15 0 -21 -3 -5 -1 -10 5 -10 7 0 10 -7 6 -15 -3 -8 -1 -15 4 -15
6 0 10 -7 10 -15 0 -8 4 -15 10 -15 5 0 9 -3 8 -7 -3 -10 85 -98 95 -95 4 1
10 -5 13 -13 4 -8 12 -15 20 -15 8 0 14 -5 14 -11 0 -5 4 -8 8 -5 5 3 18 -3
29 -14 12 -10 24 -16 27 -13 3 4 6 1 6 -6 0 -7 5 -9 10 -6 6 3 10 1 10 -5 0
-6 5 -8 10 -5 6 3 10 1 10 -5 0 -6 4 -9 9 -5 5 3 15 -1 23 -8 7 -8 19 -12 26
-9 6 2 12 -1 12 -8 0 -6 5 -8 10 -5 6 3 10 1 10 -5 0 -6 4 -9 9 -5 5 3 12 1
16 -5 4 -6 11 -8 16 -5 5 4 9 1 9 -5 0 -6 4 -9 9 -5 5 3 12 1 16 -5 4 -6 11
-8 16 -5 5 4 9 2 9 -4 0 -6 7 -8 15 -5 8 4 15 2 15 -3 0 -5 10 -9 22 -10 11
-1 25 -8 29 -15 5 -7 9 -9 9 -4 0 5 6 3 13 -3 8 -6 17 -8 20 -4 4 3 7 1 7 -6
0 -7 4 -10 9 -6 5 3 12 1 16 -5 4 -6 11 -8 16 -5 5 4 9 2 9 -4 0 -6 7 -8 15
-5 8 4 15 1 15 -6 0 -6 5 -8 10 -5 6 3 10 2 10 -4 0 -6 7 -8 15 -5 8 4 15 1
15 -6 0 -6 5 -8 10 -5 6 3 10 1 10 -5 0 -6 5 -8 10 -5 6 3 10 1 10 -5 0 -7 7
-10 15 -6 8 3 15 1 15 -5 0 -6 5 -7 10 -4 6 3 10 1 10 -4 0 -6 3 -10 8 -9 13
4 52 -13 52 -23 0 -5 6 -9 13 -7 19 3 57 -12 57 -23 0 -6 5 -7 10 -4 6 3 13
-1 16 -9 3 -9 10 -13 15 -10 5 3 9 0 9 -6 0 -6 5 -8 10 -5 6 3 10 1 10 -5 0
-6 5 -8 10 -5 6 3 13 -1 16 -9 3 -9 10 -14 14 -11 4 2 19 -6 33 -19 14 -13 28
-21 31 -19 3 3 8 -2 12 -11 3 -9 12 -16 20 -16 7 0 21 -11 30 -25 9 -14 22
-25 28 -25 15 0 78 -64 71 -72 -4 -3 8 -16 25 -28 16 -12 28 -26 24 -31 -3 -5
2 -12 10 -15 9 -3 16 -12 16 -20 0 -8 5 -14 11 -14 5 0 8 -4 5 -9 -3 -5 1 -12
10 -15 8 -3 12 -10 9 -16 -3 -5 -1 -10 5 -10 6 0 8 -4 5 -10 -3 -5 -1 -10 5
-10 6 0 8 -4 5 -10 -3 -5 -1 -10 5 -10 6 0 9 -4 6 -9 -4 -5 -1 -11 4 -13 6 -2
12 -13 13 -26 0 -12 5 -22 10 -22 5 0 7 -7 3 -15 -3 -8 -1 -15 5 -15 6 0 9 -7
5 -15 -3 -8 -1 -15 5 -15 6 0 8 -7 5 -17 -4 -9 -2 -20 5 -23 6 -4 12 -31 12
-59 0 -28 3 -51 6 -51 3 0 6 -70 6 -155 0 -85 -3 -155 -7 -155 -4 0 -7 -17 -7
-37 0 -59 -2 -72 -11 -78 -5 -3 -7 -12 -4 -19 3 -8 1 -17 -5 -20 -6 -4 -8 -13
-4 -21 3 -8 0 -15 -6 -15 -6 0 -8 -7 -5 -15 4 -8 1 -15 -6 -15 -6 0 -9 -4 -5
-9 3 -5 1 -12 -5 -16 -6 -4 -8 -11 -5 -16 4 -5 2 -9 -2 -9 -5 0 -10 -10 -10
-22 -1 -13 -7 -24 -13 -26 -5 -2 -8 -8 -4 -13 3 -5 0 -9 -6 -9 -6 0 -9 -4 -6
-9 3 -5 -1 -12 -10 -15 -8 -3 -12 -10 -9 -16 3 -5 1 -10 -5 -10 -6 0 -9 -4 -6
-9 3 -5 -6 -21 -19 -35 -14 -15 -25 -31 -25 -35 0 -5 -11 -16 -25 -25 -14 -9
-23 -20 -21 -25 3 -4 -13 -25 -36 -47 -22 -21 -38 -32 -34 -24 4 8 -4 2 -19
-15 -14 -16 -30 -29 -35 -28 -5 2 -14 -6 -20 -17 -6 -11 -15 -18 -19 -15 -5 3
-12 -2 -15 -11 -4 -9 -9 -14 -12 -11 -4 3 -15 -3 -27 -13 -11 -11 -24 -17 -29
-14 -4 3 -8 0 -8 -6 0 -6 -4 -8 -10 -5 -5 3 -10 1 -10 -5 0 -6 -4 -8 -10 -5
-5 3 -10 1 -10 -5 0 -6 -4 -8 -10 -5 -5 3 -10 1 -10 -5 0 -6 -4 -8 -10 -5 -5
3 -10 1 -10 -5 0 -6 -4 -9 -9 -6 -5 4 -11 1 -13 -4 -2 -6 -13 -12 -26 -13 -12
0 -22 -5 -22 -10 0 -5 -7 -7 -15 -3 -8 3 -15 1 -15 -5 0 -6 -7 -8 -16 -5 -10
4 -13 2 -8 -6 5 -8 2 -9 -11 -4 -11 4 -22 2 -26 -5 -4 -7 -21 -12 -38 -12 -17
0 -31 -4 -31 -9 0 -5 -9 -6 -20 -3 -12 4 -20 2 -20 -5 0 -7 -8 -9 -20 -5 -11
4 -20 2 -20 -4 0 -6 -10 -11 -22 -11 -49 -1 -84 -6 -95 -13 -7 -4 -28 -5 -48
-1 -24 4 -35 3 -35 -6 0 -9 -20 -10 -76 -5 -56 6 -75 5 -70 -4 5 -8 -23 -11
-99 -11 -77 0 -104 3 -99 11 5 9 -15 10 -79 5 -56 -5 -87 -3 -92 4 -4 6 -22 8
-44 4 -24 -4 -41 -2 -45 5 -4 6 -18 8 -32 5 -13 -3 -30 -1 -38 5 -7 6 -20 9
-29 5 -8 -3 -18 -1 -22 5 -3 6 -17 8 -31 5 -15 -4 -24 -2 -24 6 0 7 -7 10 -16
6 -9 -3 -21 -3 -27 1 -12 7 -41 13 -69 14 -10 0 -20 4 -23 9 -3 5 -12 7 -20 3
-8 -3 -15 0 -15 7 0 7 -8 9 -20 5 -12 -4 -20 -2 -20 5 0 7 -8 9 -19 5 -11 -3
-22 -1 -25 4 -4 6 -13 8 -20 5 -8 -3 -17 -1 -20 5 -4 6 -13 8 -21 4 -8 -3 -15
0 -15 7 0 7 -7 10 -16 6 -14 -5 -15 -1 -9 26 4 18 7 50 6 70 -1 20 3 40 9 43
6 4 8 21 4 40 -3 19 -2 40 3 47 4 7 9 33 10 58 1 25 4 68 7 95 14 152 16 183
16 212 0 17 4 34 10 38 5 3 10 1 10 -5 0 -6 5 -8 10 -5 6 3 10 1 10 -5 0 -6 5
-8 10 -5 6 3 10 1 10 -5 0 -6 5 -8 10 -5 6 3 10 1 10 -5 0 -6 5 -8 10 -5 6 3
10 1 10 -5 0 -6 5 -8 10 -5 6 3 10 1 10 -6 0 -7 3 -9 6 -6 4 3 16 1 28 -5 11
-7 24 -11 29 -10 4 1 7 -3 7 -9 0 -5 5 -7 10 -4 6 3 10 2 10 -4 0 -6 7 -8 15
-5 8 4 15 1 15 -6 0 -6 4 -9 9 -5 5 3 12 1 16 -5 4 -6 10 -8 15 -5 5 3 11 1
15 -5 4 -6 11 -8 16 -5 5 4 9 1 9 -5 0 -7 7 -10 15 -7 8 4 17 2 20 -3 3 -5 12
-7 19 -4 8 3 17 1 20 -5 4 -6 13 -8 21 -4 8 3 15 0 15 -7 0 -7 8 -9 20 -5 12
4 20 2 20 -5 0 -6 10 -8 25 -4 16 4 25 2 25 -6 0 -7 8 -9 20 -5 11 3 25 3 31
-1 16 -9 57 -12 214 -14 72 -1 137 1 145 4 8 3 31 7 50 9 20 2 41 7 48 11 7 4
17 4 22 1 6 -3 10 -1 10 5 0 7 6 10 14 7 8 -3 16 -1 18 4 2 5 13 11 26 12 12
0 22 5 22 10 0 4 5 5 10 2 6 -3 10 -1 10 5 0 6 5 8 10 5 6 -3 10 -1 10 6 0 7
3 10 6 6 3 -3 15 3 27 13 11 11 24 17 28 14 4 -2 13 5 19 16 6 11 15 18 19 16
4 -3 21 8 36 24 16 17 25 30 19 30 -5 1 1 9 14 20 13 10 23 23 22 27 0 4 6 15
13 23 7 9 12 21 9 28 -2 7 1 12 7 12 6 0 8 7 5 15 -4 8 -2 15 2 15 10 0 14 30
14 105 0 80 -3 105 -13 105 -5 0 -7 7 -3 15 3 8 1 15 -5 15 -6 0 -7 5 -4 10 3
6 1 10 -5 10 -6 0 -8 5 -5 10 3 6 1 10 -5 10 -6 0 -9 4 -6 9 3 5 -1 12 -9 15
-8 3 -14 9 -13 14 3 9 -72 86 -85 86 -5 1 -14 9 -21 18 -7 10 -16 15 -19 11
-4 -3 -9 2 -13 11 -3 9 -9 14 -14 11 -4 -2 -16 4 -27 15 -12 10 -24 16 -27 13
-3 -4 -6 -1 -6 6 0 7 -4 9 -10 6 -5 -3 -10 -1 -10 5 0 6 -4 8 -10 5 -5 -3 -10
-1 -10 5 0 6 -4 8 -10 5 -5 -3 -10 -1 -10 5 0 6 -4 8 -10 5 -5 -3 -10 -1 -10
5 0 6 -4 8 -10 5 -5 -3 -10 -1 -10 5 0 6 -4 9 -9 5 -5 -3 -12 -1 -16 5 -4 6
-11 8 -16 5 -5 -4 -9 -1 -9 5 0 6 -4 8 -10 5 -5 -3 -10 -2 -10 4 0 6 -7 8 -15
5 -8 -4 -15 -1 -15 6 0 6 -4 8 -10 5 -5 -3 -10 -1 -10 5 0 6 -4 9 -9 5 -5 -3
-12 -1 -16 5 -4 6 -11 8 -16 5 -5 -4 -9 -1 -9 5 0 6 -4 9 -9 5 -5 -3 -12 -1
-16 5 -4 6 -11 8 -16 5 -5 -4 -9 -1 -9 5 0 6 -4 9 -9 5 -5 -3 -12 -1 -16 5 -4
6 -11 8 -16 5 -5 -4 -9 -2 -9 4 0 6 -7 8 -15 5 -8 -4 -15 -1 -15 6 0 6 -4 8
-10 5 -5 -3 -10 -2 -10 4 0 6 -7 8 -15 5 -8 -4 -15 -1 -15 6 0 6 -4 8 -10 5
-5 -3 -10 -2 -10 4 0 6 -7 7 -17 4 -11 -4 -14 -3 -9 5 5 8 2 10 -8 6 -9 -3
-16 -1 -16 6 0 6 -4 8 -10 5 -5 -3 -10 -2 -10 2 0 5 -10 10 -22 10 -13 1 -24
7 -26 13 -2 5 -8 8 -13 4 -5 -3 -9 0 -9 6 0 6 -4 8 -10 5 -5 -3 -10 -1 -10 5
0 6 -4 8 -10 5 -5 -3 -10 -1 -10 5 0 6 -4 8 -10 5 -5 -3 -10 -1 -10 5 0 6 -4
8 -10 5 -5 -3 -10 -1 -10 5 0 6 -4 8 -10 5 -5 -3 -10 -1 -10 5 0 6 -4 8 -10 5
-5 -3 -10 -1 -10 4 0 6 -7 11 -15 11 -8 0 -15 5 -15 11 0 5 -4 7 -10 4 -5 -3
-10 -1 -10 5 0 6 -4 9 -9 6 -5 -3 -20 6 -35 21 -14 14 -26 22 -26 17 0 -5 -5
-1 -11 9 -6 9 -14 15 -19 12 -5 -3 -14 4 -20 15 -6 11 -14 19 -18 18 -9 -3
-152 141 -152 153 0 5 -7 12 -15 15 -8 4 -15 12 -15 20 0 8 -5 14 -11 14 -5 0
-7 5 -4 10 3 6 -1 13 -9 16 -9 3 -13 10 -10 15 3 5 0 9 -6 9 -6 0 -8 5 -5 10
3 6 1 10 -5 10 -6 0 -8 5 -5 10 3 6 1 10 -5 10 -6 0 -8 5 -5 10 3 6 1 10 -5
10 -6 0 -9 4 -6 9 4 5 2 11 -4 13 -5 1 -11 14 -14 28 -2 14 -5 26 -7 28 -1 1
-2 5 -3 10 -1 4 -5 13 -9 20 -5 6 -6 16 -3 21 4 5 1 11 -4 13 -6 2 -12 23 -13
48 -2 25 -6 50 -9 55 -10 16 -6 325 4 331 5 3 6 19 3 34 -3 15 -2 31 3 34 6 3
8 15 5 26 -3 12 0 20 7 20 7 0 9 8 5 20 -4 12 -2 20 5 20 6 0 8 5 5 10 -4 6
-1 17 5 25 7 8 9 15 6 15 -4 0 -4 6 1 13 4 6 9 21 10 32 2 11 8 22 13 23 6 2
8 8 4 13 -3 5 0 9 5 9 6 0 10 3 9 8 -4 14 13 52 23 52 6 0 7 5 4 10 -3 6 -1
10 5 10 6 0 8 5 5 10 -3 6 -1 10 4 10 6 0 11 7 11 15 0 8 5 15 11 15 5 0 7 5
4 10 -3 6 1 13 9 16 9 3 16 12 16 20 0 7 11 21 25 30 14 9 25 21 25 27 0 16
61 77 77 77 7 0 20 11 29 25 9 14 20 22 25 20 4 -3 13 4 19 15 6 11 15 18 19
15 5 -3 12 2 15 11 3 8 10 12 16 9 5 -3 10 -1 10 5 0 6 4 9 9 6 5 -3 12 1 15
10 3 8 10 12 16 9 5 -3 10 -1 10 5 0 6 5 8 10 5 6 -3 10 -1 10 5 0 6 5 8 10 5
6 -3 10 -1 10 5 0 6 5 8 10 5 6 -3 10 -1 10 4 0 6 3 10 8 9 4 -1 17 3 28 10
12 6 24 8 28 5 3 -3 6 -1 6 6 0 8 7 11 15 7 8 -3 15 0 15 6 0 6 3 8 7 5 3 -4
12 -2 20 4 7 6 13 8 13 4 0 -4 7 -2 15 5 8 6 19 9 25 5 5 -3 10 -1 10 5 0 7 8
9 20 5 12 -4 20 -2 20 5 0 7 8 9 20 5 11 -3 20 -2 20 4 0 5 8 10 18 10 31 2
67 7 82 14 16 7 43 8 133 7 32 0 57 4 57 10 0 6 48 10 125 10 77 0 125 -4 125
-10z m-1708 -325 l-3 -275 -497 0 -497 0 0 -1482 0 -1483 -347 -3 -348 -2 -2
1482 -3 1483 -507 3 -508 2 0 259 c0 143 3 266 6 275 6 14 134 16 1358 16
l1351 0 -3 -275z"/>
<path d="M6 2269 c-3 -17 -6 -535 -6 -1150 l0 -1119 1108 1 c609 1 1121 5
1137 10 20 5 10 6 -29 2 -45 -4 -57 -3 -51 7 5 9 2 10 -15 5 -31 -10 -118 4
-99 16 9 6 -2 7 -30 3 -33 -5 -42 -4 -37 5 6 9 0 10 -21 6 -18 -5 -24 -3 -15
3 9 6 -2 9 -34 8 -27 -1 -49 4 -51 10 -2 7 -14 10 -26 7 -18 -4 -19 -3 -7 7
12 9 10 11 -10 6 -30 -6 -72 3 -65 14 3 5 -5 6 -17 2 -13 -3 -19 -1 -15 5 5 7
-1 9 -15 6 -19 -4 -20 -3 -8 7 12 9 11 10 -6 5 -24 -6 -56 3 -49 15 3 4 -2 11
-11 14 -8 3 -12 2 -9 -4 8 -13 5 -12 -33 1 -18 6 -30 15 -27 19 3 4 -4 6 -15
3 -12 -3 -22 1 -26 11 -3 9 -10 14 -14 11 -12 -8 -41 6 -34 16 3 5 -2 6 -10 3
-18 -7 -72 20 -80 41 -4 11 -13 14 -25 10 -11 -3 -23 0 -27 6 -5 8 -3 9 6 4 8
-5 11 -4 6 3 -4 6 -14 8 -23 5 -11 -4 -14 -3 -9 5 5 8 1 10 -10 5 -12 -4 -15
-3 -10 5 5 8 1 10 -10 5 -13 -5 -15 -3 -9 7 5 9 4 11 -3 6 -13 -8 -56 17 -46
26 3 3 -3 5 -13 4 -10 0 -17 5 -15 12 1 8 -2 11 -8 7 -6 -4 -26 3 -45 15 -47
29 -45 37 3 10 35 -21 36 -21 12 -1 -24 20 -36 25 -54 22 -12 -2 -37 20 -32
28 3 4 -5 13 -17 21 -21 12 -21 12 -7 -6 12 -14 8 -14 -17 5 -18 12 -33 25
-33 28 0 3 8 -1 18 -8 15 -13 16 -12 4 3 -8 9 -19 15 -26 12 -8 -3 -28 13 -45
35 -18 22 -35 40 -39 40 -20 -3 -32 2 -32 14 0 8 -10 22 -22 33 l-23 19 20
-25 20 -25 -27 24 c-15 13 -25 28 -22 33 3 5 2 7 -3 6 -5 -2 -36 24 -68 58
-47 47 -50 49 -15 10 l45 -51 -53 51 c-29 28 -55 59 -56 70 -2 10 -8 19 -14
19 -6 0 -17 6 -24 14 -11 12 -10 13 2 6 9 -5 12 -4 7 1 -5 5 -14 9 -20 9 -7 1
-11 6 -10 13 2 7 -3 11 -10 9 -6 -1 -11 6 -11 16 1 10 -15 31 -35 48 -38 30
-98 103 -70 84 8 -5 2 2 -15 16 -16 14 -26 31 -22 37 3 6 1 14 -5 18 -8 4 -9
3 -5 -4 4 -7 5 -12 3 -12 -10 0 -57 81 -52 90 3 5 0 12 -6 16 -8 4 -9 3 -5 -4
4 -7 5 -12 2 -12 -3 0 -10 10 -17 21 -9 17 -8 20 3 14 7 -5 1 3 -14 18 -26 24
-33 39 -29 60 1 5 -4 5 -10 1 -9 -5 -10 -2 -6 10 4 9 3 15 -2 12 -11 -7 -23
22 -14 36 4 7 1 8 -7 3 -10 -6 -12 -4 -7 9 4 9 3 15 -2 12 -5 -3 -12 1 -15 10
-4 10 -2 13 7 9 6 -4 4 0 -7 9 -10 8 -15 20 -10 27 4 7 3 10 -3 6 -13 -8 -26
20 -16 35 4 7 1 8 -7 3 -10 -6 -12 -4 -7 9 4 9 3 14 -2 11 -12 -7 -24 31 -15
46 4 8 3 9 -4 5 -11 -7 -14 -3 -16 27 -1 6 -7 18 -14 25 -6 7 -12 19 -12 25 0
7 4 6 10 -3 5 -8 10 -10 10 -5 0 6 -9 19 -21 29 -13 11 -19 25 -16 37 3 12 1
17 -6 12 -6 -4 -8 2 -5 15 4 12 3 20 -2 17 -11 -7 -21 40 -13 61 4 11 3 15 -5
10 -14 -8 -25 28 -17 55 5 16 4 19 -5 14 -9 -5 -10 -1 -5 15 5 17 4 21 -5 15
-10 -6 -12 0 -7 26 5 26 4 30 -4 19 -8 -12 -10 -9 -6 12 2 17 0 25 -6 21 -6
-4 -7 8 -3 33 5 30 4 35 -4 24 -9 -12 -11 -9 -7 13 2 15 0 30 -5 33 -5 3 -7
25 -4 48 4 32 3 36 -4 16 -8 -21 -9 -17 -7 22 1 25 -2 44 -7 40 -5 -3 -7 20
-3 56 7 66 4 82 -7 31z"/>
<path d="M8987 2121 c4 -39 3 -52 -5 -47 -8 5 -10 -3 -6 -26 4 -26 3 -30 -6
-18 -8 12 -9 6 -4 -22 4 -26 3 -38 -5 -38 -7 0 -9 -5 -6 -11 11 -17 -26 -153
-37 -137 -6 8 -7 1 -3 -21 5 -22 4 -31 -3 -27 -6 4 -8 -2 -4 -16 4 -16 2 -19
-8 -13 -9 5 -11 4 -6 -4 9 -14 -22 -111 -34 -111 -5 0 -6 -7 -3 -17 4 -10 2
-14 -4 -10 -7 5 -9 -1 -5 -15 3 -14 1 -19 -6 -14 -8 5 -10 1 -5 -10 4 -11 3
-15 -4 -11 -7 5 -9 -1 -5 -15 3 -14 1 -19 -6 -14 -8 5 -10 1 -5 -10 5 -13 3
-15 -7 -9 -8 5 -11 4 -7 -3 9 -14 -3 -43 -14 -36 -5 3 -6 -1 -3 -9 3 -8 -2
-17 -11 -21 -11 -4 -14 -12 -10 -25 4 -13 -1 -27 -14 -40 -12 -12 -21 -24 -21
-28 0 -21 -12 -43 -21 -38 -5 3 -6 -2 -2 -11 5 -13 3 -15 -7 -9 -9 5 -11 4 -6
-3 9 -15 -18 -55 -29 -44 -5 4 -5 1 0 -7 5 -9 0 -20 -16 -33 -13 -11 -18 -17
-11 -13 11 6 12 3 4 -11 -13 -23 -47 -65 -36 -45 5 9 3 12 -5 7 -6 -4 -9 -12
-6 -17 8 -12 -20 -51 -30 -41 -5 4 -5 2 -2 -4 8 -14 -21 -56 -34 -49 -5 3 -7
0 -4 -7 2 -7 -8 -27 -23 -43 -15 -17 -24 -26 -19 -21 4 6 7 14 7 20 0 5 -6 1
-14 -9 -8 -11 -12 -24 -10 -30 3 -6 -6 -20 -18 -31 -23 -19 -23 -19 -8 1 14
18 14 19 -2 6 -10 -7 -16 -17 -13 -21 6 -10 -64 -90 -78 -87 -6 1 -11 -2 -12
-8 -1 -19 -16 -35 -27 -29 -6 4 -8 2 -5 -3 8 -13 -27 -46 -38 -36 -4 5 -5 3
-2 -3 6 -11 -27 -49 -48 -56 -5 -2 -9 -6 -8 -10 4 -10 -67 -69 -76 -63 -5 2
-15 -3 -22 -13 -13 -16 -12 -16 6 -2 20 15 20 15 1 -8 -11 -12 -25 -21 -32
-18 -7 3 -18 -3 -26 -12 -12 -16 -11 -16 7 -2 20 15 20 14 1 -8 -20 -23 -42
-31 -30 -9 4 6 -2 3 -14 -7 -26 -23 -30 -34 -4 -15 15 13 16 12 3 -4 -8 -10
-20 -16 -27 -13 -7 3 -18 -3 -26 -12 -11 -15 -11 -16 2 -7 9 6 4 0 -10 -13
-14 -12 -30 -20 -37 -17 -7 2 -15 -1 -19 -7 -5 -7 -2 -8 6 -3 9 6 11 4 6 -4
-5 -7 -14 -10 -22 -7 -7 3 -16 0 -20 -6 -5 -7 -2 -8 7 -4 8 4 5 0 -6 -8 -11
-9 -25 -14 -32 -12 -7 3 -15 0 -19 -6 -5 -7 -2 -8 6 -3 9 6 11 4 6 -4 -5 -7
-14 -10 -22 -7 -7 3 -16 0 -20 -6 -5 -7 -2 -8 7 -4 8 4 5 0 -6 -8 -11 -9 -25
-14 -32 -12 -7 3 -15 0 -19 -6 -5 -7 -2 -8 6 -3 9 6 11 4 6 -4 -5 -7 -15 -10
-23 -7 -8 3 -12 2 -9 -3 7 -11 -22 -23 -36 -14 -6 3 -8 1 -5 -4 8 -13 -20 -26
-35 -16 -7 4 -8 1 -3 -7 6 -10 4 -12 -9 -7 -11 5 -15 3 -10 -5 5 -8 2 -9 -10
-5 -9 4 -15 3 -12 -2 7 -11 -22 -23 -36 -14 -7 4 -8 1 -3 -7 6 -10 4 -12 -9
-7 -11 5 -15 3 -10 -5 5 -8 2 -9 -10 -5 -10 4 -15 3 -11 -3 6 -9 -10 -14 -42
-13 -7 1 -10 -3 -7 -8 5 -8 -12 -13 -43 -12 -7 1 -10 -4 -6 -10 4 -6 0 -8 -10
-4 -10 4 -17 2 -17 -4 0 -6 -7 -8 -16 -5 -10 4 -13 2 -8 -6 5 -8 2 -9 -9 -5
-10 3 -17 2 -17 -4 0 -6 -9 -8 -21 -4 -14 5 -19 3 -15 -3 8 -14 -28 -25 -56
-17 -16 4 -19 3 -10 -3 18 -12 -23 -24 -58 -16 -18 4 -21 3 -12 -4 18 -12 -30
-25 -61 -17 -18 5 -19 4 -7 -5 12 -9 10 -11 -12 -7 -17 2 -25 0 -21 -6 4 -6
-8 -8 -33 -4 -30 5 -34 4 -19 -3 16 -8 12 -9 -18 -6 -25 3 -35 1 -31 -6 5 -7
-8 -9 -42 -5 -36 4 -43 4 -24 -3 20 -8 15 -9 -24 -6 -28 2 -43 0 -36 -4 9 -6
2 -10 -21 -13 -19 -2 462 -5 1069 -5 l1102 -2 -1 1063 c-1 584 -5 1073 -9
1087 -6 16 -7 6 -3 -29z"/>
</g>
</svg>
